tetrisMusic = {
    "header": {
      "keySignatures": [
        {
          "key": "C",
          "scale": "major",
          "ticks": 0
        }
      ],
      "meta": [],
      "name": "",
      "ppq": 1024,
      "tempos": [
        {
          "bpm": 120,
          "ticks": 0
        },
        {
          "bpm": 120,
          "ticks": 0
        },
        {
          "bpm": 120,
          "ticks": 1
        },
        {
          "bpm": 120,
          "ticks": 2048
        },
        {
          "bpm": 118.0001337334849,
          "ticks": 2304
        },
        {
          "bpm": 118.0001337334849,
          "ticks": 2560
        },
        {
          "bpm": 117.000117000117,
          "ticks": 2816
        },
        {
          "bpm": 117.000117000117,
          "ticks": 3072
        },
        {
          "bpm": 116.00008506672904,
          "ticks": 3328
        },
        {
          "bpm": 116.00008506672904,
          "ticks": 3584
        },
        {
          "bpm": 115.00002875000719,
          "ticks": 3840
        },
        {
          "bpm": 120,
          "ticks": 4352
        }
      ],
      "timeSignatures": [
        {
          "ticks": 0,
          "timeSignature": [
            4,
            4
          ],
          "measures": 0
        }
      ]
    },
    "tracks": [
      {
        "channel": 0,
        "controlChanges": {
          "6": [
            {
              "number": 6,
              "ticks": 4,
              "time": 0.001953125,
              "value": 0.09448818897637795
            },
            {
              "number": 6,
              "ticks": 4,
              "time": 0.001953125,
              "value": 0.09448818897637795
            }
          ],
          "7": [
            {
              "number": 7,
              "ticks": 0,
              "time": 0,
              "value": 0.7952755905511811
            },
            {
              "number": 7,
              "ticks": 0,
              "time": 0,
              "value": 0.8661417322834646
            },
            {
              "number": 7,
              "ticks": 0,
              "time": 0,
              "value": 0.8031496062992126
            },
            {
              "number": 7,
              "ticks": 10,
              "time": 0.0048828125,
              "value": 0.8661417322834646
            },
            {
              "number": 7,
              "ticks": 10,
              "time": 0.0048828125,
              "value": 0.8031496062992126
            },
            {
              "number": 7,
              "ticks": 15585,
              "time": 7.64000028125,
              "value": 0.8661417322834646
            },
            {
              "number": 7,
              "ticks": 35041,
              "time": 17.14000028125,
              "value": 0.8031496062992126
            },
            {
              "number": 7,
              "ticks": 69857,
              "time": 34.140000281249996,
              "value": 0.8661417322834646
            },
            {
              "number": 7,
              "ticks": 69857,
              "time": 34.140000281249996,
              "value": 0.8031496062992126
            }
          ],
          "10": [
            {
              "number": 10,
              "ticks": 0,
              "time": 0,
              "value": 0.5039370078740157
            }
          ],
          "38": [
            {
              "number": 38,
              "ticks": 5,
              "time": 0.00244140625,
              "value": 0
            },
            {
              "number": 38,
              "ticks": 5,
              "time": 0.00244140625,
              "value": 0
            }
          ],
          "100": [
            {
              "number": 100,
              "ticks": 3,
              "time": 0.00146484375,
              "value": 0
            },
            {
              "number": 100,
              "ticks": 3,
              "time": 0.00146484375,
              "value": 0
            }
          ],
          "101": [
            {
              "number": 101,
              "ticks": 3,
              "time": 0.00146484375,
              "value": 0
            },
            {
              "number": 101,
              "ticks": 3,
              "time": 0.00146484375,
              "value": 0
            }
          ]
        },
        "pitchBends": [],
        "instrument": {
          "family": "piano",
          "number": 0,
          "name": "acoustic grand piano"
        },
        "name": "Piano",
        "notes": [
          {
            "duration": 0.50927734375,
            "durationTicks": 1043,
            "midi": 76,
            "name": "E5",
            "ticks": 10,
            "time": 0.0048828125,
            "velocity": 0.5433070866141733
          },
          {
            "duration": 0.2763671875,
            "durationTicks": 566,
            "midi": 52,
            "name": "E3",
            "ticks": 10,
            "time": 0.0048828125,
            "velocity": 0.44881889763779526
          },
          {
            "duration": 0.2626953125,
            "durationTicks": 538,
            "midi": 64,
            "name": "E4",
            "ticks": 546,
            "time": 0.2666015625,
            "velocity": 0.4094488188976378
          },
          {
            "duration": 0.2314453125,
            "durationTicks": 474,
            "midi": 71,
            "name": "B4",
            "ticks": 1054,
            "time": 0.5146484375,
            "velocity": 0.5118110236220472
          },
          {
            "duration": 0.26123046875,
            "durationTicks": 535,
            "midi": 52,
            "name": "E3",
            "ticks": 1054,
            "time": 0.5146484375,
            "velocity": 0.41732283464566927
          },
          {
            "duration": 0.23388671875,
            "durationTicks": 479,
            "midi": 72,
            "name": "C5",
            "ticks": 1559,
            "time": 0.76123046875,
            "velocity": 0.5039370078740157
          },
          {
            "duration": 0.263671875,
            "durationTicks": 540,
            "midi": 64,
            "name": "E4",
            "ticks": 1559,
            "time": 0.76123046875,
            "velocity": 0.4094488188976378
          },
          {
            "duration": 0.5026969023437498,
            "durationTicks": 1014,
            "midi": 74,
            "name": "D5",
            "ticks": 2069,
            "time": 1.01025390625,
            "velocity": 0.5275590551181102
          },
          {
            "duration": 0.266195869140625,
            "durationTicks": 540,
            "midi": 52,
            "name": "E3",
            "ticks": 2069,
            "time": 1.01025390625,
            "velocity": 0.4330708661417323
          },
          {
            "duration": 0.2669225566406248,
            "durationTicks": 535,
            "midi": 64,
            "name": "E4",
            "ticks": 2579,
            "time": 1.261553076171875,
            "velocity": 0.4094488188976378
          },
          {
            "duration": 0.23837256835937493,
            "durationTicks": 474,
            "midi": 72,
            "name": "C5",
            "ticks": 3084,
            "time": 1.5134516093749997,
            "velocity": 0.5118110236220472
          },
          {
            "duration": 0.2691847763671875,
            "durationTicks": 535,
            "midi": 52,
            "name": "E3",
            "ticks": 3084,
            "time": 1.5134516093749997,
            "velocity": 0.41732283464566927
          },
          {
            "duration": 0.24142457617187496,
            "durationTicks": 476,
            "midi": 71,
            "name": "B4",
            "ticks": 3589,
            "time": 1.7674828408203123,
            "velocity": 0.5039370078740157
          },
          {
            "duration": 0.2725047314453124,
            "durationTicks": 537,
            "midi": 64,
            "name": "E4",
            "ticks": 3589,
            "time": 1.7674828408203123,
            "velocity": 0.4094488188976378
          },
          {
            "duration": 0.51755686328125,
            "durationTicks": 1049,
            "midi": 69,
            "name": "A4",
            "ticks": 4100,
            "time": 2.02674029296875,
            "velocity": 0.5433070866141733
          },
          {
            "duration": 0.28464670703124995,
            "durationTicks": 572,
            "midi": 45,
            "name": "A2",
            "ticks": 4100,
            "time": 2.02674029296875,
            "velocity": 0.44881889763779526
          },
          {
            "duration": 0.2626953125,
            "durationTicks": 538,
            "midi": 57,
            "name": "A3",
            "ticks": 4642,
            "time": 2.2967385625,
            "velocity": 0.4094488188976378
          },
          {
            "duration": 0.2314453125,
            "durationTicks": 474,
            "midi": 69,
            "name": "A4",
            "ticks": 5150,
            "time": 2.5447854375,
            "velocity": 0.5118110236220472
          },
          {
            "duration": 0.26123046875,
            "durationTicks": 535,
            "midi": 45,
            "name": "A2",
            "ticks": 5150,
            "time": 2.5447854375,
            "velocity": 0.41732283464566927
          },
          {
            "duration": 0.23388671875,
            "durationTicks": 479,
            "midi": 72,
            "name": "C5",
            "ticks": 5655,
            "time": 2.79136746875,
            "velocity": 0.5039370078740157
          },
          {
            "duration": 0.263671875,
            "durationTicks": 540,
            "midi": 57,
            "name": "A3",
            "ticks": 5655,
            "time": 2.79136746875,
            "velocity": 0.4094488188976378
          },
          {
            "duration": 0.4951171875,
            "durationTicks": 1014,
            "midi": 76,
            "name": "E5",
            "ticks": 6165,
            "time": 3.04039090625,
            "velocity": 0.5275590551181102
          },
          {
            "duration": 0.263671875,
            "durationTicks": 540,
            "midi": 45,
            "name": "A2",
            "ticks": 6165,
            "time": 3.04039090625,
            "velocity": 0.4330708661417323
          },
          {
            "duration": 0.26123046875,
            "durationTicks": 535,
            "midi": 57,
            "name": "A3",
            "ticks": 6675,
            "time": 3.28941434375,
            "velocity": 0.4094488188976378
          },
          {
            "duration": 0.2314453125,
            "durationTicks": 474,
            "midi": 74,
            "name": "D5",
            "ticks": 7180,
            "time": 3.535996375,
            "velocity": 0.5118110236220472
          },
          {
            "duration": 0.26123046875,
            "durationTicks": 535,
            "midi": 45,
            "name": "A2",
            "ticks": 7180,
            "time": 3.535996375,
            "velocity": 0.41732283464566927
          },
          {
            "duration": 0.232421875,
            "durationTicks": 476,
            "midi": 72,
            "name": "C5",
            "ticks": 7685,
            "time": 3.78257840625,
            "velocity": 0.5039370078740157
          },
          {
            "duration": 0.26220703125,
            "durationTicks": 537,
            "midi": 57,
            "name": "A3",
            "ticks": 7685,
            "time": 3.78257840625,
            "velocity": 0.4094488188976378
          },
          {
            "duration": 0.51220703125,
            "durationTicks": 1049,
            "midi": 71,
            "name": "B4",
            "ticks": 8196,
            "time": 4.032090125,
            "velocity": 0.5433070866141733
          },
          {
            "duration": 0.279296875,
            "durationTicks": 572,
            "midi": 44,
            "name": "G#2",
            "ticks": 8196,
            "time": 4.032090125,
            "velocity": 0.44881889763779526
          },
          {
            "duration": 0.2626953125,
            "durationTicks": 538,
            "midi": 56,
            "name": "G#3",
            "ticks": 8738,
            "time": 4.2967385625,
            "velocity": 0.4094488188976378
          },
          {
            "duration": 0.2314453125,
            "durationTicks": 474,
            "midi": 71,
            "name": "B4",
            "ticks": 9246,
            "time": 4.5447854375,
            "velocity": 0.5118110236220472
          },
          {
            "duration": 0.26123046875,
            "durationTicks": 535,
            "midi": 44,
            "name": "G#2",
            "ticks": 9246,
            "time": 4.5447854375,
            "velocity": 0.41732283464566927
          },
          {
            "duration": 0.23388671875,
            "durationTicks": 479,
            "midi": 72,
            "name": "C5",
            "ticks": 9751,
            "time": 4.79136746875,
            "velocity": 0.5039370078740157
          },
          {
            "duration": 0.263671875,
            "durationTicks": 540,
            "midi": 56,
            "name": "G#3",
            "ticks": 9751,
            "time": 4.79136746875,
            "velocity": 0.4094488188976378
          },
          {
            "duration": 0.4951171875,
            "durationTicks": 1014,
            "midi": 74,
            "name": "D5",
            "ticks": 10261,
            "time": 5.04039090625,
            "velocity": 0.5275590551181102
          },
          {
            "duration": 0.263671875,
            "durationTicks": 540,
            "midi": 44,
            "name": "G#2",
            "ticks": 10261,
            "time": 5.04039090625,
            "velocity": 0.4330708661417323
          },
          {
            "duration": 0.26123046875,
            "durationTicks": 535,
            "midi": 56,
            "name": "G#3",
            "ticks": 10771,
            "time": 5.28941434375,
            "velocity": 0.4094488188976378
          },
          {
            "duration": 0.49365234375,
            "durationTicks": 1011,
            "midi": 76,
            "name": "E5",
            "ticks": 11276,
            "time": 5.535996375,
            "velocity": 0.5118110236220472
          },
          {
            "duration": 0.26123046875,
            "durationTicks": 535,
            "midi": 44,
            "name": "G#2",
            "ticks": 11276,
            "time": 5.535996375,
            "velocity": 0.41732283464566927
          },
          {
            "duration": 0.26220703125,
            "durationTicks": 537,
            "midi": 56,
            "name": "G#3",
            "ticks": 11781,
            "time": 5.78257840625,
            "velocity": 0.4094488188976378
          },
          {
            "duration": 0.51220703125,
            "durationTicks": 1049,
            "midi": 72,
            "name": "C5",
            "ticks": 12292,
            "time": 6.032090125,
            "velocity": 0.5433070866141733
          },
          {
            "duration": 0.279296875,
            "durationTicks": 572,
            "midi": 45,
            "name": "A2",
            "ticks": 12292,
            "time": 6.032090125,
            "velocity": 0.44881889763779526
          },
          {
            "duration": 0.2626953125,
            "durationTicks": 538,
            "midi": 57,
            "name": "A3",
            "ticks": 12834,
            "time": 6.2967385625,
            "velocity": 0.4094488188976378
          },
          {
            "duration": 0.4951171875,
            "durationTicks": 1014,
            "midi": 69,
            "name": "A4",
            "ticks": 13342,
            "time": 6.5447854375,
            "velocity": 0.5118110236220472
          },
          {
            "duration": 0.26123046875,
            "durationTicks": 535,
            "midi": 45,
            "name": "A2",
            "ticks": 13342,
            "time": 6.5447854375,
            "velocity": 0.41732283464566927
          },
          {
            "duration": 0.263671875,
            "durationTicks": 540,
            "midi": 57,
            "name": "A3",
            "ticks": 13847,
            "time": 6.79136746875,
            "velocity": 0.4094488188976378
          },
          {
            "duration": 0.4951171875,
            "durationTicks": 1014,
            "midi": 69,
            "name": "A4",
            "ticks": 14357,
            "time": 7.04039090625,
            "velocity": 0.5275590551181102
          },
          {
            "duration": 0.263671875,
            "durationTicks": 540,
            "midi": 45,
            "name": "A2",
            "ticks": 14357,
            "time": 7.04039090625,
            "velocity": 0.4330708661417323
          },
          {
            "duration": 0.26123046875,
            "durationTicks": 535,
            "midi": 57,
            "name": "A3",
            "ticks": 14867,
            "time": 7.28941434375,
            "velocity": 0.4094488188976378
          },
          {
            "duration": 0.26123046875,
            "durationTicks": 535,
            "midi": 47,
            "name": "B2",
            "ticks": 15372,
            "time": 7.535996375,
            "velocity": 0.3543307086614173
          },
          {
            "duration": 0.2158203125,
            "durationTicks": 442,
            "midi": 59,
            "name": "B3",
            "ticks": 15372,
            "time": 7.535996375,
            "velocity": 0.4645669291338583
          },
          {
            "duration": 0.26220703125,
            "durationTicks": 537,
            "midi": 48,
            "name": "C3",
            "ticks": 15877,
            "time": 7.78257840625,
            "velocity": 0.3464566929133858
          },
          {
            "duration": 0.216796875,
            "durationTicks": 444,
            "midi": 60,
            "name": "C4",
            "ticks": 15877,
            "time": 7.78257840625,
            "velocity": 0.4566929133858268
          },
          {
            "duration": 0.279296875,
            "durationTicks": 572,
            "midi": 50,
            "name": "D3",
            "ticks": 16388,
            "time": 8.032090125,
            "velocity": 0.44881889763779526
          },
          {
            "duration": 0.2626953125,
            "durationTicks": 538,
            "midi": 62,
            "name": "D4",
            "ticks": 16930,
            "time": 8.2967385625,
            "velocity": 0.4094488188976378
          },
          {
            "duration": 0.4951171875,
            "durationTicks": 1014,
            "midi": 74,
            "name": "D5",
            "ticks": 17438,
            "time": 8.5447854375,
            "velocity": 0.5118110236220472
          },
          {
            "duration": 0.26123046875,
            "durationTicks": 535,
            "midi": 50,
            "name": "D3",
            "ticks": 17438,
            "time": 8.5447854375,
            "velocity": 0.41732283464566927
          },
          {
            "duration": 0.263671875,
            "durationTicks": 540,
            "midi": 62,
            "name": "D4",
            "ticks": 17943,
            "time": 8.79136746875,
            "velocity": 0.4094488188976378
          },
          {
            "duration": 0.23388671875,
            "durationTicks": 479,
            "midi": 77,
            "name": "F5",
            "ticks": 18453,
            "time": 9.04039090625,
            "velocity": 0.5275590551181102
          },
          {
            "duration": 0.263671875,
            "durationTicks": 540,
            "midi": 50,
            "name": "D3",
            "ticks": 18453,
            "time": 9.04039090625,
            "velocity": 0.4330708661417323
          },
          {
            "duration": 0.47802734375,
            "durationTicks": 979,
            "midi": 81,
            "name": "A5",
            "ticks": 18963,
            "time": 9.28941434375,
            "velocity": 0.5039370078740157
          },
          {
            "duration": 0.26123046875,
            "durationTicks": 535,
            "midi": 62,
            "name": "D4",
            "ticks": 18963,
            "time": 9.28941434375,
            "velocity": 0.4094488188976378
          },
          {
            "duration": 0.26123046875,
            "durationTicks": 535,
            "midi": 50,
            "name": "D3",
            "ticks": 19468,
            "time": 9.535996375,
            "velocity": 0.41732283464566927
          },
          {
            "duration": 0.26220703125,
            "durationTicks": 537,
            "midi": 62,
            "name": "D4",
            "ticks": 19973,
            "time": 9.78257840625,
            "velocity": 0.4094488188976378
          },
          {
            "duration": 0.24951171875,
            "durationTicks": 511,
            "midi": 79,
            "name": "G5",
            "ticks": 20484,
            "time": 10.032090125,
            "velocity": 0.5433070866141733
          },
          {
            "duration": 0.279296875,
            "durationTicks": 572,
            "midi": 50,
            "name": "D3",
            "ticks": 20484,
            "time": 10.032090125,
            "velocity": 0.44881889763779526
          },
          {
            "duration": 0.23291015625,
            "durationTicks": 477,
            "midi": 77,
            "name": "F5",
            "ticks": 21026,
            "time": 10.2967385625,
            "velocity": 0.5039370078740157
          },
          {
            "duration": 0.2626953125,
            "durationTicks": 538,
            "midi": 62,
            "name": "D4",
            "ticks": 21026,
            "time": 10.2967385625,
            "velocity": 0.4094488188976378
          },
          {
            "duration": 0.99072265625,
            "durationTicks": 2029,
            "midi": 76,
            "name": "E5",
            "ticks": 21534,
            "time": 10.5447854375,
            "velocity": 0.5118110236220472
          },
          {
            "duration": 0.26123046875,
            "durationTicks": 535,
            "midi": 48,
            "name": "C3",
            "ticks": 21534,
            "time": 10.5447854375,
            "velocity": 0.41732283464566927
          },
          {
            "duration": 0.263671875,
            "durationTicks": 540,
            "midi": 60,
            "name": "C4",
            "ticks": 22039,
            "time": 10.79136746875,
            "velocity": 0.4094488188976378
          },
          {
            "duration": 0.263671875,
            "durationTicks": 540,
            "midi": 48,
            "name": "C3",
            "ticks": 22549,
            "time": 11.04039090625,
            "velocity": 0.4330708661417323
          },
          {
            "duration": 0.26123046875,
            "durationTicks": 535,
            "midi": 60,
            "name": "C4",
            "ticks": 23059,
            "time": 11.28941434375,
            "velocity": 0.4094488188976378
          },
          {
            "duration": 0.2314453125,
            "durationTicks": 474,
            "midi": 72,
            "name": "C5",
            "ticks": 23564,
            "time": 11.535996375,
            "velocity": 0.5118110236220472
          },
          {
            "duration": 0.26123046875,
            "durationTicks": 535,
            "midi": 48,
            "name": "C3",
            "ticks": 23564,
            "time": 11.535996375,
            "velocity": 0.41732283464566927
          },
          {
            "duration": 0.76171875,
            "durationTicks": 1560,
            "midi": 76,
            "name": "E5",
            "ticks": 24069,
            "time": 11.78257840625,
            "velocity": 0.5039370078740157
          },
          {
            "duration": 0.26220703125,
            "durationTicks": 537,
            "midi": 60,
            "name": "C4",
            "ticks": 24069,
            "time": 11.78257840625,
            "velocity": 0.4094488188976378
          },
          {
            "duration": 0.279296875,
            "durationTicks": 572,
            "midi": 48,
            "name": "C3",
            "ticks": 24580,
            "time": 12.032090125,
            "velocity": 0.44881889763779526
          },
          {
            "duration": 0.2626953125,
            "durationTicks": 538,
            "midi": 60,
            "name": "C4",
            "ticks": 25122,
            "time": 12.2967385625,
            "velocity": 0.4094488188976378
          },
          {
            "duration": 0.2353515625,
            "durationTicks": 482,
            "midi": 74,
            "name": "D5",
            "ticks": 25630,
            "time": 12.5447854375,
            "velocity": 0.5118110236220472
          },
          {
            "duration": 0.26123046875,
            "durationTicks": 535,
            "midi": 48,
            "name": "C3",
            "ticks": 25630,
            "time": 12.5447854375,
            "velocity": 0.41732283464566927
          },
          {
            "duration": 0.23388671875,
            "durationTicks": 479,
            "midi": 72,
            "name": "C5",
            "ticks": 26135,
            "time": 12.79136746875,
            "velocity": 0.5039370078740157
          },
          {
            "duration": 0.263671875,
            "durationTicks": 540,
            "midi": 60,
            "name": "C4",
            "ticks": 26135,
            "time": 12.79136746875,
            "velocity": 0.4094488188976378
          },
          {
            "duration": 0.73974609375,
            "durationTicks": 1515,
            "midi": 71,
            "name": "B4",
            "ticks": 26645,
            "time": 13.04039090625,
            "velocity": 0.5275590551181102
          },
          {
            "duration": 0.263671875,
            "durationTicks": 540,
            "midi": 44,
            "name": "G#2",
            "ticks": 26645,
            "time": 13.04039090625,
            "velocity": 0.4330708661417323
          },
          {
            "duration": 0.26123046875,
            "durationTicks": 535,
            "midi": 56,
            "name": "G#3",
            "ticks": 27155,
            "time": 13.28941434375,
            "velocity": 0.4094488188976378
          },
          {
            "duration": 0.26123046875,
            "durationTicks": 535,
            "midi": 44,
            "name": "G#2",
            "ticks": 27660,
            "time": 13.535996375,
            "velocity": 0.41732283464566927
          },
          {
            "duration": 0.232421875,
            "durationTicks": 476,
            "midi": 72,
            "name": "C5",
            "ticks": 28165,
            "time": 13.78257840625,
            "velocity": 0.5039370078740157
          },
          {
            "duration": 0.26220703125,
            "durationTicks": 537,
            "midi": 56,
            "name": "G#3",
            "ticks": 28165,
            "time": 13.78257840625,
            "velocity": 0.4094488188976378
          },
          {
            "duration": 0.49755859375,
            "durationTicks": 1019,
            "midi": 74,
            "name": "D5",
            "ticks": 28676,
            "time": 14.032090125,
            "velocity": 0.5433070866141733
          },
          {
            "duration": 0.279296875,
            "durationTicks": 572,
            "midi": 44,
            "name": "G#2",
            "ticks": 28676,
            "time": 14.032090125,
            "velocity": 0.44881889763779526
          },
          {
            "duration": 0.2626953125,
            "durationTicks": 538,
            "midi": 56,
            "name": "G#3",
            "ticks": 29218,
            "time": 14.2967385625,
            "velocity": 0.4094488188976378
          },
          {
            "duration": 0.4951171875,
            "durationTicks": 1014,
            "midi": 76,
            "name": "E5",
            "ticks": 29726,
            "time": 14.5447854375,
            "velocity": 0.5118110236220472
          },
          {
            "duration": 0.26123046875,
            "durationTicks": 535,
            "midi": 44,
            "name": "G#2",
            "ticks": 29726,
            "time": 14.5447854375,
            "velocity": 0.41732283464566927
          },
          {
            "duration": 0.263671875,
            "durationTicks": 540,
            "midi": 56,
            "name": "G#3",
            "ticks": 30231,
            "time": 14.79136746875,
            "velocity": 0.4094488188976378
          },
          {
            "duration": 0.4951171875,
            "durationTicks": 1014,
            "midi": 72,
            "name": "C5",
            "ticks": 30741,
            "time": 15.04039090625,
            "velocity": 0.5275590551181102
          },
          {
            "duration": 0.263671875,
            "durationTicks": 540,
            "midi": 45,
            "name": "A2",
            "ticks": 30741,
            "time": 15.04039090625,
            "velocity": 0.4330708661417323
          },
          {
            "duration": 0.26123046875,
            "durationTicks": 535,
            "midi": 57,
            "name": "A3",
            "ticks": 31251,
            "time": 15.28941434375,
            "velocity": 0.4094488188976378
          },
          {
            "duration": 0.49365234375,
            "durationTicks": 1011,
            "midi": 69,
            "name": "A4",
            "ticks": 31756,
            "time": 15.535996375,
            "velocity": 0.5118110236220472
          },
          {
            "duration": 0.26123046875,
            "durationTicks": 535,
            "midi": 45,
            "name": "A2",
            "ticks": 31756,
            "time": 15.535996375,
            "velocity": 0.41732283464566927
          },
          {
            "duration": 0.26220703125,
            "durationTicks": 537,
            "midi": 57,
            "name": "A3",
            "ticks": 32261,
            "time": 15.78257840625,
            "velocity": 0.4094488188976378
          },
          {
            "duration": 0.51220703125,
            "durationTicks": 1049,
            "midi": 69,
            "name": "A4",
            "ticks": 32772,
            "time": 16.032090125,
            "velocity": 0.5433070866141733
          },
          {
            "duration": 0.279296875,
            "durationTicks": 572,
            "midi": 45,
            "name": "A2",
            "ticks": 32772,
            "time": 16.032090125,
            "velocity": 0.44881889763779526
          },
          {
            "duration": 0.2626953125,
            "durationTicks": 538,
            "midi": 57,
            "name": "A3",
            "ticks": 33314,
            "time": 16.2967385625,
            "velocity": 0.4094488188976378
          },
          {
            "duration": 0.26123046875,
            "durationTicks": 535,
            "midi": 45,
            "name": "A2",
            "ticks": 33822,
            "time": 16.5447854375,
            "velocity": 0.41732283464566927
          },
          {
            "duration": 0.263671875,
            "durationTicks": 540,
            "midi": 57,
            "name": "A3",
            "ticks": 34327,
            "time": 16.79136746875,
            "velocity": 0.4094488188976378
          },
          {
            "duration": 1.0078125,
            "durationTicks": 2064,
            "midi": 76,
            "name": "E5",
            "ticks": 36868,
            "time": 18.032090125,
            "velocity": 0.5433070866141733
          },
          {
            "duration": 0.279296875,
            "durationTicks": 572,
            "midi": 45,
            "name": "A2",
            "ticks": 36868,
            "time": 18.032090125,
            "velocity": 0.44881889763779526
          },
          {
            "duration": 0.2626953125,
            "durationTicks": 538,
            "midi": 57,
            "name": "A3",
            "ticks": 37410,
            "time": 18.2967385625,
            "velocity": 0.4094488188976378
          },
          {
            "duration": 0.26123046875,
            "durationTicks": 535,
            "midi": 45,
            "name": "A2",
            "ticks": 37918,
            "time": 18.5447854375,
            "velocity": 0.41732283464566927
          },
          {
            "duration": 0.263671875,
            "durationTicks": 540,
            "midi": 57,
            "name": "A3",
            "ticks": 38423,
            "time": 18.79136746875,
            "velocity": 0.4094488188976378
          },
          {
            "duration": 0.9892578125,
            "durationTicks": 2026,
            "midi": 72,
            "name": "C5",
            "ticks": 38933,
            "time": 19.04039090625,
            "velocity": 0.5275590551181102
          },
          {
            "duration": 0.263671875,
            "durationTicks": 540,
            "midi": 45,
            "name": "A2",
            "ticks": 38933,
            "time": 19.04039090625,
            "velocity": 0.4330708661417323
          },
          {
            "duration": 0.26123046875,
            "durationTicks": 535,
            "midi": 57,
            "name": "A3",
            "ticks": 39443,
            "time": 19.28941434375,
            "velocity": 0.4094488188976378
          },
          {
            "duration": 0.26123046875,
            "durationTicks": 535,
            "midi": 45,
            "name": "A2",
            "ticks": 39948,
            "time": 19.535996375,
            "velocity": 0.41732283464566927
          },
          {
            "duration": 0.26220703125,
            "durationTicks": 537,
            "midi": 57,
            "name": "A3",
            "ticks": 40453,
            "time": 19.78257840625,
            "velocity": 0.4094488188976378
          },
          {
            "duration": 1.0078125,
            "durationTicks": 2064,
            "midi": 74,
            "name": "D5",
            "ticks": 40964,
            "time": 20.032090125,
            "velocity": 0.5433070866141733
          },
          {
            "duration": 0.279296875,
            "durationTicks": 572,
            "midi": 44,
            "name": "G#2",
            "ticks": 40964,
            "time": 20.032090125,
            "velocity": 0.44881889763779526
          },
          {
            "duration": 0.2626953125,
            "durationTicks": 538,
            "midi": 56,
            "name": "G#3",
            "ticks": 41506,
            "time": 20.2967385625,
            "velocity": 0.4094488188976378
          },
          {
            "duration": 0.26123046875,
            "durationTicks": 535,
            "midi": 44,
            "name": "G#2",
            "ticks": 42014,
            "time": 20.5447854375,
            "velocity": 0.41732283464566927
          },
          {
            "duration": 0.263671875,
            "durationTicks": 540,
            "midi": 56,
            "name": "G#3",
            "ticks": 42519,
            "time": 20.79136746875,
            "velocity": 0.4094488188976378
          },
          {
            "duration": 0.9892578125,
            "durationTicks": 2026,
            "midi": 71,
            "name": "B4",
            "ticks": 43029,
            "time": 21.04039090625,
            "velocity": 0.5275590551181102
          },
          {
            "duration": 0.263671875,
            "durationTicks": 540,
            "midi": 44,
            "name": "G#2",
            "ticks": 43029,
            "time": 21.04039090625,
            "velocity": 0.4330708661417323
          },
          {
            "duration": 0.26123046875,
            "durationTicks": 535,
            "midi": 56,
            "name": "G#3",
            "ticks": 43539,
            "time": 21.28941434375,
            "velocity": 0.4094488188976378
          },
          {
            "duration": 0.26123046875,
            "durationTicks": 535,
            "midi": 44,
            "name": "G#2",
            "ticks": 44044,
            "time": 21.535996375,
            "velocity": 0.41732283464566927
          },
          {
            "duration": 0.26220703125,
            "durationTicks": 537,
            "midi": 56,
            "name": "G#3",
            "ticks": 44549,
            "time": 21.78257840625,
            "velocity": 0.4094488188976378
          },
          {
            "duration": 1.0078125,
            "durationTicks": 2064,
            "midi": 72,
            "name": "C5",
            "ticks": 45060,
            "time": 22.032090125,
            "velocity": 0.5433070866141733
          },
          {
            "duration": 0.279296875,
            "durationTicks": 572,
            "midi": 45,
            "name": "A2",
            "ticks": 45060,
            "time": 22.032090125,
            "velocity": 0.44881889763779526
          },
          {
            "duration": 0.2626953125,
            "durationTicks": 538,
            "midi": 57,
            "name": "A3",
            "ticks": 45602,
            "time": 22.2967385625,
            "velocity": 0.4094488188976378
          },
          {
            "duration": 0.26123046875,
            "durationTicks": 535,
            "midi": 45,
            "name": "A2",
            "ticks": 46110,
            "time": 22.5447854375,
            "velocity": 0.41732283464566927
          },
          {
            "duration": 0.263671875,
            "durationTicks": 540,
            "midi": 57,
            "name": "A3",
            "ticks": 46615,
            "time": 22.79136746875,
            "velocity": 0.4094488188976378
          },
          {
            "duration": 0.9892578125,
            "durationTicks": 2026,
            "midi": 69,
            "name": "A4",
            "ticks": 47125,
            "time": 23.04039090625,
            "velocity": 0.5275590551181102
          },
          {
            "duration": 0.263671875,
            "durationTicks": 540,
            "midi": 45,
            "name": "A2",
            "ticks": 47125,
            "time": 23.04039090625,
            "velocity": 0.4330708661417323
          },
          {
            "duration": 0.26123046875,
            "durationTicks": 535,
            "midi": 57,
            "name": "A3",
            "ticks": 47635,
            "time": 23.28941434375,
            "velocity": 0.4094488188976378
          },
          {
            "duration": 0.26123046875,
            "durationTicks": 535,
            "midi": 45,
            "name": "A2",
            "ticks": 48140,
            "time": 23.535996375,
            "velocity": 0.41732283464566927
          },
          {
            "duration": 0.26220703125,
            "durationTicks": 537,
            "midi": 57,
            "name": "A3",
            "ticks": 48645,
            "time": 23.78257840625,
            "velocity": 0.4094488188976378
          },
          {
            "duration": 1.0078125,
            "durationTicks": 2064,
            "midi": 68,
            "name": "G#4",
            "ticks": 49156,
            "time": 24.032090125,
            "velocity": 0.5433070866141733
          },
          {
            "duration": 0.279296875,
            "durationTicks": 572,
            "midi": 44,
            "name": "G#2",
            "ticks": 49156,
            "time": 24.032090125,
            "velocity": 0.44881889763779526
          },
          {
            "duration": 0.2626953125,
            "durationTicks": 538,
            "midi": 56,
            "name": "G#3",
            "ticks": 49698,
            "time": 24.2967385625,
            "velocity": 0.4094488188976378
          },
          {
            "duration": 0.26123046875,
            "durationTicks": 535,
            "midi": 44,
            "name": "G#2",
            "ticks": 50206,
            "time": 24.5447854375,
            "velocity": 0.41732283464566927
          },
          {
            "duration": 0.263671875,
            "durationTicks": 540,
            "midi": 56,
            "name": "G#3",
            "ticks": 50711,
            "time": 24.79136746875,
            "velocity": 0.4094488188976378
          },
          {
            "duration": 0.9892578125,
            "durationTicks": 2026,
            "midi": 71,
            "name": "B4",
            "ticks": 51221,
            "time": 25.04039090625,
            "velocity": 0.5275590551181102
          },
          {
            "duration": 0.263671875,
            "durationTicks": 540,
            "midi": 44,
            "name": "G#2",
            "ticks": 51221,
            "time": 25.04039090625,
            "velocity": 0.4330708661417323
          },
          {
            "duration": 0.26123046875,
            "durationTicks": 535,
            "midi": 56,
            "name": "G#3",
            "ticks": 51731,
            "time": 25.28941434375,
            "velocity": 0.4094488188976378
          },
          {
            "duration": 0.26123046875,
            "durationTicks": 535,
            "midi": 44,
            "name": "G#2",
            "ticks": 52236,
            "time": 25.535996375,
            "velocity": 0.41732283464566927
          },
          {
            "duration": 0.26220703125,
            "durationTicks": 537,
            "midi": 56,
            "name": "G#3",
            "ticks": 52741,
            "time": 25.78257840625,
            "velocity": 0.4094488188976378
          },
          {
            "duration": 1.0078125,
            "durationTicks": 2064,
            "midi": 76,
            "name": "E5",
            "ticks": 53252,
            "time": 26.032090125,
            "velocity": 0.5433070866141733
          },
          {
            "duration": 0.279296875,
            "durationTicks": 572,
            "midi": 45,
            "name": "A2",
            "ticks": 53252,
            "time": 26.032090125,
            "velocity": 0.44881889763779526
          },
          {
            "duration": 0.2626953125,
            "durationTicks": 538,
            "midi": 57,
            "name": "A3",
            "ticks": 53794,
            "time": 26.2967385625,
            "velocity": 0.4094488188976378
          },
          {
            "duration": 0.26123046875,
            "durationTicks": 535,
            "midi": 45,
            "name": "A2",
            "ticks": 54302,
            "time": 26.5447854375,
            "velocity": 0.41732283464566927
          },
          {
            "duration": 0.263671875,
            "durationTicks": 540,
            "midi": 57,
            "name": "A3",
            "ticks": 54807,
            "time": 26.79136746875,
            "velocity": 0.4094488188976378
          },
          {
            "duration": 0.9892578125,
            "durationTicks": 2026,
            "midi": 72,
            "name": "C5",
            "ticks": 55317,
            "time": 27.04039090625,
            "velocity": 0.5275590551181102
          },
          {
            "duration": 0.263671875,
            "durationTicks": 540,
            "midi": 45,
            "name": "A2",
            "ticks": 55317,
            "time": 27.04039090625,
            "velocity": 0.4330708661417323
          },
          {
            "duration": 0.26123046875,
            "durationTicks": 535,
            "midi": 57,
            "name": "A3",
            "ticks": 55827,
            "time": 27.28941434375,
            "velocity": 0.4094488188976378
          },
          {
            "duration": 0.26123046875,
            "durationTicks": 535,
            "midi": 45,
            "name": "A2",
            "ticks": 56332,
            "time": 27.535996375,
            "velocity": 0.41732283464566927
          },
          {
            "duration": 0.26220703125,
            "durationTicks": 537,
            "midi": 57,
            "name": "A3",
            "ticks": 56837,
            "time": 27.78257840625,
            "velocity": 0.4094488188976378
          },
          {
            "duration": 1.0078125,
            "durationTicks": 2064,
            "midi": 74,
            "name": "D5",
            "ticks": 57348,
            "time": 28.032090125,
            "velocity": 0.5433070866141733
          },
          {
            "duration": 0.279296875,
            "durationTicks": 572,
            "midi": 44,
            "name": "G#2",
            "ticks": 57348,
            "time": 28.032090125,
            "velocity": 0.44881889763779526
          },
          {
            "duration": 0.2626953125,
            "durationTicks": 538,
            "midi": 56,
            "name": "G#3",
            "ticks": 57890,
            "time": 28.2967385625,
            "velocity": 0.4094488188976378
          },
          {
            "duration": 0.26123046875,
            "durationTicks": 535,
            "midi": 44,
            "name": "G#2",
            "ticks": 58398,
            "time": 28.5447854375,
            "velocity": 0.41732283464566927
          },
          {
            "duration": 0.263671875,
            "durationTicks": 540,
            "midi": 56,
            "name": "G#3",
            "ticks": 58903,
            "time": 28.79136746875,
            "velocity": 0.4094488188976378
          },
          {
            "duration": 0.9892578125,
            "durationTicks": 2026,
            "midi": 71,
            "name": "B4",
            "ticks": 59413,
            "time": 29.04039090625,
            "velocity": 0.5275590551181102
          },
          {
            "duration": 0.263671875,
            "durationTicks": 540,
            "midi": 44,
            "name": "G#2",
            "ticks": 59413,
            "time": 29.04039090625,
            "velocity": 0.4330708661417323
          },
          {
            "duration": 0.26123046875,
            "durationTicks": 535,
            "midi": 56,
            "name": "G#3",
            "ticks": 59923,
            "time": 29.28941434375,
            "velocity": 0.4094488188976378
          },
          {
            "duration": 0.26123046875,
            "durationTicks": 535,
            "midi": 44,
            "name": "G#2",
            "ticks": 60428,
            "time": 29.535996375,
            "velocity": 0.41732283464566927
          },
          {
            "duration": 0.26220703125,
            "durationTicks": 537,
            "midi": 56,
            "name": "G#3",
            "ticks": 60933,
            "time": 29.78257840625,
            "velocity": 0.4094488188976378
          },
          {
            "duration": 0.51220703125,
            "durationTicks": 1049,
            "midi": 72,
            "name": "C5",
            "ticks": 61444,
            "time": 30.032090125,
            "velocity": 0.5433070866141733
          },
          {
            "duration": 0.279296875,
            "durationTicks": 572,
            "midi": 45,
            "name": "A2",
            "ticks": 61444,
            "time": 30.032090125,
            "velocity": 0.44881889763779526
          },
          {
            "duration": 0.2626953125,
            "durationTicks": 538,
            "midi": 57,
            "name": "A3",
            "ticks": 61986,
            "time": 30.2967385625,
            "velocity": 0.4094488188976378
          },
          {
            "duration": 0.4951171875,
            "durationTicks": 1014,
            "midi": 76,
            "name": "E5",
            "ticks": 62494,
            "time": 30.5447854375,
            "velocity": 0.5118110236220472
          },
          {
            "duration": 0.26123046875,
            "durationTicks": 535,
            "midi": 45,
            "name": "A2",
            "ticks": 62494,
            "time": 30.5447854375,
            "velocity": 0.41732283464566927
          },
          {
            "duration": 0.263671875,
            "durationTicks": 540,
            "midi": 57,
            "name": "A3",
            "ticks": 62999,
            "time": 30.79136746875,
            "velocity": 0.4094488188976378
          },
          {
            "duration": 0.9892578124999964,
            "durationTicks": 2026,
            "midi": 81,
            "name": "A5",
            "ticks": 63509,
            "time": 31.04039090625,
            "velocity": 0.5275590551181102
          },
          {
            "duration": 0.263671875,
            "durationTicks": 540,
            "midi": 45,
            "name": "A2",
            "ticks": 63509,
            "time": 31.04039090625,
            "velocity": 0.4330708661417323
          },
          {
            "duration": 0.26123046875,
            "durationTicks": 535,
            "midi": 57,
            "name": "A3",
            "ticks": 64019,
            "time": 31.28941434375,
            "velocity": 0.4094488188976378
          },
          {
            "duration": 0.26123046875,
            "durationTicks": 535,
            "midi": 45,
            "name": "A2",
            "ticks": 64524,
            "time": 31.535996375,
            "velocity": 0.41732283464566927
          },
          {
            "duration": 0.26220703124999645,
            "durationTicks": 537,
            "midi": 57,
            "name": "A3",
            "ticks": 65029,
            "time": 31.78257840625,
            "velocity": 0.4094488188976378
          },
          {
            "duration": 1.99755859375,
            "durationTicks": 4091,
            "midi": 80,
            "name": "G#5",
            "ticks": 65540,
            "time": 32.032090124999996,
            "velocity": 0.5039370078740157
          },
          {
            "duration": 0.279296875,
            "durationTicks": 572,
            "midi": 44,
            "name": "G#2",
            "ticks": 65540,
            "time": 32.032090124999996,
            "velocity": 0.44881889763779526
          },
          {
            "duration": 0.2626953125,
            "durationTicks": 538,
            "midi": 56,
            "name": "G#3",
            "ticks": 66082,
            "time": 32.296738562499996,
            "velocity": 0.4094488188976378
          },
          {
            "duration": 0.26123046875,
            "durationTicks": 535,
            "midi": 44,
            "name": "G#2",
            "ticks": 66590,
            "time": 32.544785437499996,
            "velocity": 0.41732283464566927
          },
          {
            "duration": 0.263671875,
            "durationTicks": 540,
            "midi": 56,
            "name": "G#3",
            "ticks": 67095,
            "time": 32.791367468749996,
            "velocity": 0.4094488188976378
          },
          {
            "duration": 0.263671875,
            "durationTicks": 540,
            "midi": 44,
            "name": "G#2",
            "ticks": 67605,
            "time": 33.040390906249996,
            "velocity": 0.4330708661417323
          },
          {
            "duration": 0.26123046875,
            "durationTicks": 535,
            "midi": 56,
            "name": "G#3",
            "ticks": 68115,
            "time": 33.289414343749996,
            "velocity": 0.4094488188976378
          },
          {
            "duration": 0.26123046875,
            "durationTicks": 535,
            "midi": 44,
            "name": "G#2",
            "ticks": 68620,
            "time": 33.535996374999996,
            "velocity": 0.41732283464566927
          },
          {
            "duration": 0.26220703125,
            "durationTicks": 537,
            "midi": 56,
            "name": "G#3",
            "ticks": 69125,
            "time": 33.782578406249996,
            "velocity": 0.4094488188976378
          }
        ],
        "endOfTrackTicks": 122881
      }
    ]
  }